<?xml version="1.0" encoding="UTF-8" standalone="no"?>
<?xml-stylesheet type="text/css" href="index.css"?><svg
   xmlns:dc="http://purl.org/dc/elements/1.1/"
   xmlns:cc="http://creativecommons.org/ns#"
   xmlns:rdf="http://www.w3.org/1999/02/22-rdf-syntax-ns#"
   xmlns:svg="http://www.w3.org/2000/svg"
   xmlns="http://www.w3.org/2000/svg"
   xmlns:xlink="http://www.w3.org/1999/xlink"
   xmlns:sodipodi="http://sodipodi.sourceforge.net/DTD/sodipodi-0.dtd"
   xmlns:inkscape="http://www.inkscape.org/namespaces/inkscape"
   width="1366"
   height="768"
   viewBox="0 0 361.421 203.2"
   version="1.1"
   id="svg7493"
   sodipodi:docname="landingpage.svg"
   inkscape:version="0.92.2 5c3e80d, 2017-08-06">
  <metadata
     id="metadata7497">
    <rdf:RDF>
      <cc:Work
         rdf:about="">
        <dc:format>image/svg+xml</dc:format>
        <dc:type
           rdf:resource="http://purl.org/dc/dcmitype/StillImage" />
      </cc:Work>
    </rdf:RDF>
  </metadata>
  <sodipodi:namedview
     pagecolor="#ffffff"
     bordercolor="#666666"
     borderopacity="1"
     objecttolerance="10"
     gridtolerance="10"
     guidetolerance="10"
     inkscape:pageopacity="0"
     inkscape:pageshadow="2"
     inkscape:window-width="1368"
     inkscape:window-height="756"
     id="namedview7495"
     showgrid="false"
     inkscape:zoom="0.52708638"
     inkscape:cx="660.62345"
     inkscape:cy="352.56579"
     inkscape:window-x="0"
     inkscape:window-y="0"
     inkscape:window-maximized="0"
     inkscape:current-layer="g7461" />
  <defs
     id="defs7165">
    <filter
       id="c"
       x="-.007"
       width="1.014"
       y="-.048"
       height="1.096"
       color-interpolation-filters="sRGB">
      <feGaussianBlur
         stdDeviation=".02"
         id="feGaussianBlur7147" />
    </filter>
    <filter
       id="d"
       x="-.007"
       width="1.014"
       y="-.048"
       height="1.096"
       color-interpolation-filters="sRGB">
      <feGaussianBlur
         stdDeviation=".02"
         id="feGaussianBlur7150" />
    </filter>
    <filter
       id="e"
       x="-.007"
       width="1.014"
       y="-.048"
       height="1.096"
       color-interpolation-filters="sRGB">
      <feGaussianBlur
         stdDeviation=".02"
         id="feGaussianBlur7153" />
    </filter>
    <filter
       id="f"
       x="-.007"
       width="1.014"
       y="-.048"
       height="1.096"
       color-interpolation-filters="sRGB">
      <feGaussianBlur
         stdDeviation=".02"
         id="feGaussianBlur7156" />
    </filter>
    <linearGradient
       id="a">
      <stop
         offset="0"
         stop-color="#b6dcff"
         id="stop7159" />
      <stop
         offset="1"
         stop-color="#b6dcff"
         stop-opacity="0"
         id="stop7161" />
    </linearGradient>
    <linearGradient
       xlink:href="#a"
       id="b"
       gradientUnits="userSpaceOnUse"
       gradientTransform="matrix(.99533 0 0 .99644 .919 .331)"
       x1="173.438"
       y1="252.666"
       x2="175.616"
       y2="75.199" />
  </defs>
  <g
     transform="translate(0 -93.8)"
     id="g7461">
    <rect
       width="359.662"
       height="174.768"
       x=".919"
       y="93.339"
       ry="0"
       opacity=".94"
       fill="url(#b)"
       stroke="#b6dcff"
       stroke-width="1.638"
       id="rect7167" />
    <path
       fill="#cd2c22"
       fill-opacity=".941"
       d="M175.615 225.508h-1.733v7.822h1.733z"
       id="path7169" />
    <path
       d="M361.721 248.927a99.355 49.55 0 00-99.235 49.35l99.354.2z"
       opacity=".88"
       fill="#239240"
       stroke="#ef4136"
       stroke-width=".333"
       stroke-opacity=".018"
       id="path7171" />
    <path
       d="M169.14 286.134a35.182 47.454 0 00-36.629-42.272 35.182 47.454 0 00-33.524 46.724"
       opacity=".88"
       fill="#239240"
       stroke="#ef4136"
       stroke-width=".194"
       stroke-opacity=".018"
       id="path7173" />
    <g
       transform="matrix(1.2136 0 0 .9417 -48.434 2.338)"
       fill="#fff"
       id="g7183">
      <ellipse
         cx="142.951"
         cy="235.4"
         rx="11.602"
         ry="11.901"
         id="ellipse7175" />
      <ellipse
         ry="9.658"
         rx="8.032"
         cy="239.99"
         cx="158.653"
         id="ellipse7177" />
      <ellipse
         cx="131.036"
         cy="243.654"
         rx="11.897"
         ry="10.03"
         id="ellipse7179" />
      <ellipse
         cx="146.328"
         cy="248.771"
         rx="13.387"
         ry="11.405"
         id="ellipse7181" />
    </g>
    <path
       d="M124.951 271.069a62.49 49.62 0 00-63.262-48.144A62.49 49.62 0 000 272.34"
       opacity=".88"
       fill="#239240"
       stroke="#ef4136"
       stroke-width=".265"
       stroke-opacity=".018"
       id="path7185" />
    <path
       d="M149.043 292.316A62.49 49.62 0 0087 242.698a62.49 49.62 0 00-62.93 48.908"
       opacity=".95"
       fill="#239240"
       stroke="#ef4136"
       stroke-width=".265"
       stroke-opacity=".018"
       id="path7187" />
    <path
       d="M210.801 267.714a33.409 34.21 0 00-33.238-34.21 33.409 34.21 0 00-33.578 33.86"
       fill="#cdcfd5"
       id="path7189" />
    <path
       d="M203.879 266.056a26.994 25.658 0 00-26.856-25.658 26.994 25.658 0 00-27.13 25.396"
       fill="#a7acb3"
       id="path7191" />
    <path
       fill="#bcc0c7"
       d="M135.547 259.543h75.12v8.684h-75.12z"
       id="path7193" />
    <g
       transform="matrix(1.2964 0 0 1.1778 173.313 -376.383)"
       id="g7231">
      <g
         fill="#9499a3"
         id="g7199">
        <path
           d="M37.726 546.254c.003-.11-2.021-1.634-1.252-4.926 2.698-11.535-1.237-11.106.047-22.732 1.28-11.598.779-25.892.524-42.755l-.391-25.92 3.998.188c1.446 17.269 1.539 34.282 2.589 50.378 1.409 21.584 1.796 35.188 3.827 46.81-1.222-.619-16 .951-9.342-1.043z"
           id="path7195" />
        <path
           d="M37.868 546.254c-.003-.11 2.224-1.634 1.377-4.926-2.968-11.535 1.361-11.106-.051-22.732-1.41-11.598-.857-25.892-.577-42.755l.43-25.92-4.398.188c-1.592 17.269-1.693 34.282-2.85 50.377-1.55 21.585-1.976 35.19-4.21 46.812 1.344-.62 17.606.95 10.279-1.044z"
           id="path7197" />
      </g>
      <rect
         ry="1.738"
         y="448.28"
         x="29.799"
         height="3.476"
         width="15.937"
         fill="#babec4"
         id="rect7201" />
      <rect
         ry="0"
         y="449.912"
         x="36.309"
         height="97.21"
         width="2.452"
         fill="#babec4"
         id="rect7203" />
      <path
         d="M29.81 446.477l15.495-.097-2.398 2.13H32.36z"
         fill="#b8bcc2"
         id="path7205" />
      <g
         transform="translate(-.013 -.663)"
         id="g7215">
        <rect
           rx="2.764"
           ry="2.479"
           y="440.508"
           x="29.336"
           height="7.635"
           width="16.413"
           fill="#babec4"
           id="rect7207" />
        <path
           d="M29.78 441.614l15.543.02-2.125-2.138H31.972z"
           fill="#ced1d5"
           id="path7209" />
        <rect
           transform="scale(1 -1)"
           ry="0"
           rx="0"
           y="-446.037"
           x="29.334"
           height=".763"
           width="16.393"
           fill="#6d757f"
           id="rect7211" />
        <rect
           width="16.409"
           height="1.849"
           x="29.316"
           y="-444.693"
           rx="0"
           ry="0"
           transform="scale(1 -1)"
           fill="#6d757f"
           id="rect7213" />
      </g>
      <rect
         ry="0"
         y="436.558"
         x="31.959"
         height="2.276"
         width="11.088"
         fill="#9ba0a9"
         id="rect7217" />
      <rect
         width="11.088"
         height=".553"
         x="31.959"
         y="437.487"
         ry="0"
         fill="#b70000"
         id="rect7219" />
      <rect
         width="2.452"
         height="18.263"
         x="36.167"
         y="418.573"
         ry="0"
         fill="#9499a3"
         id="rect7221" />
      <rect
         ry="0"
         y="412.316"
         x="36.582"
         height="6.256"
         width="1.596"
         fill="#9499a3"
         id="rect7223" />
      <rect
         width="1.006"
         height="6.266"
         x="36.878"
         y="406.055"
         ry="0"
         fill="#9499a3"
         id="rect7225" />
      <rect
         ry="0"
         y="401.293"
         x="36.878"
         height="6.266"
         width="1.006"
         fill="#b70000"
         id="rect7227" />
      <rect
         width="1.623"
         height=".982"
         x="36.582"
         y="417.59"
         ry="0"
         fill="#b70000"
         id="rect7229" />
    </g>
    <path
       fill="#0057b8"
       d="M0 298.512h361.8v-30.406H0z"
       id="path7233" />
    <path
       fill="#ef4136"
       d="M100.509 263.36h8.553v-25.658h-8.553z"
       id="path7235" />
    <path
       fill="#ef4136"
       d="M98.89 265.824h11.76v-6.281H98.89z"
       id="path7237" />
    <path
       fill="none"
       d="M98.89 265.824h13.947v5.221H98.89z"
       id="path7239" />
    <path
       fill="#c4996c"
       d="M96.703 271.045h16.133v-7.36H96.703z"
       id="path7241" />
    <path
       fill="#b08042"
       d="M95.623 272.263h18.271v-1.747H95.623z"
       id="path7243" />
    <path
       fill="#c43b32"
       d="M100.562 237.702h8.5v1.3h-8.5z"
       id="path7245" />
    <path
       fill="none"
       d="M80.618 265.824h13.947v5.221H80.618z"
       id="path7247" />
    <path
       fill="#cd2c22"
       d="M76.946 263.36h8.553v-25.658h-8.553z"
       id="path7249" />
    <path
       fill="#cd2c22"
       d="M75.327 265.824h11.76v-6.281h-11.76z"
       id="path7251" />
    <path
       fill="#b27e47"
       d="M73.14 271.045h16.133v-7.36H73.14z"
       id="path7253" />
    <path
       fill="#c4996c"
       d="M72.06 272.263h18.271v-1.747H72.06z"
       id="path7255" />
    <path
       fill="#a93831"
       d="M76.999 237.702h8.5v1.3h-8.5z"
       id="path7257" />
    <g
       stroke="none"
       stroke-opacity="0"
       id="g7269">
      <path
         fill="#ef4136"
         d="M264.666 263.119h8.553V237.46h-8.553z"
         id="path7259" />
      <path
         fill="#ef4136"
         d="M263.046 265.583h11.76v-6.281h-11.76z"
         id="path7261" />
      <path
         fill="none"
         d="M263.046 265.583h13.947v5.22h-13.947z"
         id="path7263" />
      <path
         fill="#c4996c"
         d="M260.86 270.804h16.132v-7.36H260.86z"
         id="path7265" />
      <path
         fill="#b08042"
         d="M259.78 272.022h18.27v-1.747h-18.27z"
         id="path7267" />
    </g>
    <path
       fill="#c43b32"
       d="M264.718 237.461h8.5v1.3h-8.5z"
       id="path7271" />
    <path
       fill="#cd2c22"
       d="M241.102 263.119h8.553v-25.658h-8.553z"
       id="path7273" />
    <path
       fill="#cd2c22"
       d="M239.482 265.582h11.76v-6.281h-11.76z"
       id="path7275" />
    <path
       fill="none"
       d="M239.482 265.582h13.947v5.221h-13.947z"
       id="path7277" />
    <path
       fill="#b07c47"
       d="M237.296 270.804h16.133v-7.36h-16.133z"
       id="path7279" />
    <g
       fill="#c43b32"
       id="g7285">
      <path
         d="M239.511 235.825h11.636v-1.56h-11.636z"
         id="path7281" />
      <path
         d="M240.294 237.46h10.124v-1.892h-10.124z"
         id="path7283" />
    </g>
    <path
       fill="#a93831"
       d="M241.155 237.461h8.5v1.3h-8.5z"
       id="path7287" />
    <path
       fill="#bd8d4f"
       d="M236.216 272.022h18.271v-1.747h-18.271z"
       id="path7289" />
    <g
       fill="#cd2c22"
       id="g7295">
      <path
         d="M76.942 235.772h8.553v-23.815h-8.553zM77.471 211.957h7.5v-23.815h-7.5zM77.971 188.142h6.5v-23.815h-6.5z"
         id="path7291" />
      <path
         d="M78.442 164.328h5.5v-23.815h-5.5z"
         id="path7293" />
    </g>
    <g
       fill="#cd2c22"
       id="g7301">
      <path
         d="M75.355 236.066H86.99v-1.56H75.355z"
         id="path7297" />
      <path
         d="M76.138 237.701h10.124v-1.892H76.138z"
         id="path7299" />
    </g>
    <g
       fill="#cd2c22"
       id="g7307">
      <path
         d="M241.099 234.338h8.553v-23.815h-8.553zM241.628 210.523h7.5v-23.815h-7.5z"
         id="path7303" />
      <path
         d="M242.128 186.71h6.5v-23.816h-6.5zM242.599 162.894h5.5V139.08h-5.5z"
         id="path7305" />
    </g>
    <path
       fill="#b90000"
       stroke="#fff"
       stroke-width=".221"
       stroke-opacity=".059"
       d="M.072 233.31h361.544v4.183H.072z"
       id="path7309" />
    <g
       fill="#ef4136"
       id="g7315">
      <path
         d="M263.074 235.583h11.636v-1.79h-11.636z"
         id="path7311" />
      <path
         d="M263.857 237.46h10.124v-2.172h-10.124z"
         id="path7313" />
    </g>
    <g
       fill="#ef4136"
       id="g7321">
      <path
         d="M98.918 235.631h11.636v-1.975H98.918z"
         id="path7317" />
      <path
         d="M99.7 237.701h10.125v-2.395H99.7z"
         id="path7319" />
    </g>
    <rect
       transform="matrix(.53004 0 0 .16971 50.567 116.62)"
       ry="1.634"
       y="129.969"
       x="95.988"
       height="10.827"
       width="12.292"
       fill="#c90000"
       filter="url(#c)"
       id="rect7323" />
    <path
       fill="#ef4136"
       d="M102.22 138.7h5v-1.2h-5z"
       id="path7325" />
    <path
       d="M104.725 132.314l.755 2.48.57 2.706-1.327.237-1.323-.237.573-2.716z"
       fill="#ef4136"
       id="path7327" />
    <g
       transform="translate(164.26)"
       id="g7335">
      <rect
         transform="matrix(.53004 0 0 .16971 50.567 116.62)"
         ry="1.634"
         y="129.969"
         x="95.988"
         height="10.827"
         width="12.292"
         fill="#c90000"
         filter="url(#d)"
         id="rect7329" />
      <path
         fill="#ef4136"
         d="M102.22 138.7h5v-1.2h-5z"
         id="path7331" />
      <path
         d="M104.725 132.314l.755 2.48.57 2.706-1.327.237-1.323-.237.573-2.716z"
         fill="#ef4136"
         id="path7333" />
    </g>
    <rect
       transform="matrix(.53004 0 0 .16971 26.967 116.62)"
       ry="1.634"
       y="129.969"
       x="95.988"
       height="10.827"
       width="12.292"
       fill="#cd2c22"
       filter="url(#e)"
       id="rect7337" />
    <path
       fill="#dd3e34"
       d="M78.62 138.7h5v-1.2h-5z"
       id="path7339" />
    <path
       d="M81.125 132.314l.755 2.479.57 2.707-1.327.237-1.323-.237.573-2.716z"
       fill="#dd3e34"
       id="path7341" />
    <g
       transform="translate(164.19)"
       id="g7349">
      <rect
         transform="matrix(.53004 0 0 .16971 26.967 116.62)"
         ry="1.634"
         y="129.969"
         x="95.988"
         height="10.827"
         width="12.292"
         fill="#cd2c22"
         filter="url(#f)"
         id="rect7343" />
      <path
         fill="#dd3e34"
         d="M78.62 138.7h5v-1.2h-5z"
         id="path7345" />
      <path
         d="M81.125 132.314l.755 2.479.57 2.707-1.327.237-1.323-.237.573-2.716z"
         fill="#dd3e34"
         id="path7347" />
    </g>
    <path
       fill="#cd2c22"
       d="M83.413 146.714h18.8v-5h-18.8zM84.471 170.915h17.1v-5h-17.1z"
       id="path7351" />
    <path
       fill="#cd2c22"
       fill-opacity=".941"
       d="M101.08 178.131h-1.537v55.256h1.537z"
       id="path7353" />
    <path
       fill="#cd2c22"
       d="M84.8 194.73h16.22v-5H84.8z"
       id="path7355" />
    <g
       fill="red"
       fill-opacity=".009"
       stroke="#cd2c22"
       fill-rule="evenodd"
       stroke-width=".265"
       id="g7361">
      <path
         d="M130.959 173.34c-9.116.02-17.85-4.274-24.8-9.907"
         transform="matrix(3.25911 0 0 8.36702 -264.688 -1223.74)"
         id="path7357" />
      <path
         transform="matrix(-3.26166 0 0 8.36702 590.377 -1223.74)"
         d="M131.932 173.321c-9.442.364-18.591-4.068-25.773-9.888"
         id="path7359" />
    </g>
    <path
       fill="#cd2c22"
       d="M84.966 218.015h15.55v-5h-15.55zM247.491 146.714h18.8v-5h-18.8zM248.55 170.915h17.1v-5h-17.1zM248.878 194.73h16.22v-5h-16.22zM249.044 217.015h15.55v-5h-15.55z"
       id="path7363" />
    <path
       fill="#315fb2"
       d="M0 298.512h361.345v-18.646H0z"
       id="path7365" />
    <rect
       width="25.123"
       height="6.414"
       x="25.658"
       y="285.192"
       ry="3.207"
       fill="#6692e1"
       id="rect7367" />
    <rect
       ry="2.5"
       y="-282.382"
       x="46.937"
       height="5"
       width="25.123"
       transform="scale(1 -1)"
       fill="#6692e1"
       id="rect7369" />
    <ellipse
       cx="39.988"
       cy="279.836"
       rx="2.673"
       ry="2.138"
       fill="#6692e1"
       id="ellipse7371" />
    <ellipse
       ry="2.138"
       rx="2.673"
       cy="292.13"
       cx="120.169"
       fill="#6692e1"
       id="ellipse7373" />
    <ellipse
       cx="128.193"
       cy="292.13"
       rx="2.673"
       ry="2.138"
       fill="#6692e1"
       id="ellipse7375" />
    <rect
       transform="scale(1 -1)"
       width="25.123"
       height="5"
       x="125.514"
       y="-287.727"
       ry="2.5"
       fill="#6692e1"
       id="rect7377" />
    <rect
       ry="3.207"
       y="285.726"
       x="289.186"
       height="6.414"
       width="20"
       fill="#6692e1"
       id="rect7379" />
    <rect
       ry="2.5"
       y="-282.551"
       x="256.654"
       height="5"
       width="25.123"
       transform="scale(1 -1)"
       fill="#6692e1"
       id="rect7381" />
    <ellipse
       ry="2.138"
       rx="2.673"
       cy="277.163"
       cx="196.079"
       fill="#6692e1"
       id="ellipse7383" />
    <ellipse
       ry="2.138"
       rx="2.673"
       cy="288.923"
       cx="339.87"
       fill="#6692e1"
       id="ellipse7385" />
    <g
       transform="translate(.535 -8.018)"
       fill="#fff"
       id="g7393">
      <ellipse
         ry="12.829"
         rx="13.898"
         cy="199.179"
         cx="33.617"
         id="ellipse7387" />
      <ellipse
         cx="42.704"
         cy="208.267"
         rx="16.036"
         ry="14.967"
         id="ellipse7389" />
      <ellipse
         ry="15.234"
         rx="18.976"
         cy="209.603"
         cx="20.521"
         id="ellipse7391" />
    </g>
    <g
       transform="rotate(5.76 356.94 427.486)"
       fill="#fff"
       id="g7403">
      <ellipse
         ry="11.901"
         rx="11.602"
         cy="159.495"
         cx="301.175"
         id="ellipse7395" />
      <ellipse
         cx="316.876"
         cy="164.085"
         rx="8.032"
         ry="9.658"
         id="ellipse7397" />
      <ellipse
         ry="10.03"
         rx="11.897"
         cy="167.75"
         cx="289.259"
         id="ellipse7399" />
      <ellipse
         cx="302.623"
         cy="167.215"
         rx="11.897"
         ry="10.03"
         id="ellipse7401" />
    </g>
    <path
       fill="#cd2c22"
       fill-opacity=".941"
       d="M189.111 218.552h-1.694v14.77h1.694z"
       id="path7405" />
    <path
       transform="matrix(4.58823 0 0 8.16748 -239.59 -1188.124)"
       d="M130.959 173.34c-9.116.02-17.85-4.274-24.8-9.907"
       fill="red"
       fill-opacity=".009"
       fill-rule="evenodd"
       stroke="#cd2c22"
       stroke-width=".265"
       id="path7407" />
    <path
       fill="#cd2c22"
       fill-opacity=".941"
       d="M200.66 208.444h1.732v24.882h-1.732zM234.901 160.343h1.693v72.977h-1.693zM224.148 178.012h1.732v55.317h-1.732zM212.566 194.777h1.733v38.54h-1.733zM252.687 154.772h1.645v78.563h-1.645z"
       id="path7409" />
    <g
       fill="red"
       fill-opacity=".009"
       stroke="#ef4136"
       fill-rule="evenodd"
       stroke-width=".265"
       id="g7415">
      <path
         transform="matrix(3.2636 0 0 8.55783 -241.056 -1257.192)"
         d="M130.959 173.34c-9.116.02-17.85-4.274-24.8-9.907"
         id="path7411" />
      <path
         d="M131.932 173.321c-9.442.364-18.591-4.068-25.773-9.888"
         transform="matrix(-3.26614 0 0 8.55783 615.183 -1257.192)"
         id="path7413" />
    </g>
    <path
       transform="matrix(-3.14505 0 0 8.63335 414.963 -1269.952)"
       d="M131.932 173.321c-9.442.364-18.591-4.068-25.773-9.888"
       fill="none"
       stroke="#cd2c22"
       stroke-width=".265"
       id="path7417" />
    <g
       fill="#cd2c22"
       fill-opacity=".941"
       id="g7423">
      <path
         d="M35.781 210.971h1.647v22.351h-1.647zM10.412 225.809h1.735v7.557h-1.735zM23.284 220.16h1.695v13.187h-1.695zM48.283 196.778h1.589v36.611h-1.589zM60.404 179.24h1.538v54.075h-1.538z"
         id="path7419" />
      <rect
         ry="0"
         y="160.287"
         x="71.163"
         height="73.051"
         width="1.489"
         id="rect7421" />
    </g>
    <rect
       ry="0"
       y="160.026"
       x="-90.321"
       height="73.317"
       width="1.488"
       transform="scale(-1 1)"
       fill="#cd2c22"
       fill-opacity=".941"
       id="rect7425" />
    <path
       d="M131.932 173.321c-9.442.364-18.591-4.068-25.773-9.888"
       transform="matrix(-4.06614 0 0 8.5322 536.484 -1252.42)"
       fill="none"
       stroke="#ef4136"
       stroke-width=".265"
       id="path7427" />
    <g
       stroke="none"
       stroke-opacity="0"
       fill="#ef4136"
       id="g7433">
      <path
         d="M264.662 234.338h8.553v-23.815h-8.553zM265.19 210.523h7.5v-23.815h-7.5z"
         id="path7429" />
      <path
         d="M265.69 186.71h6.5v-23.816h-6.5zM266.162 162.894h5.5V139.08h-5.5z"
         id="path7431" />
    </g>
    <path
       fill="#cd2c22"
       fill-opacity=".941"
       d="M359.356 227.629h1.928v5.762h-1.928z"
       id="path7435" />
    <path
       transform="matrix(3.74296 0 0 8.59288 -128.894 -1262.92)"
       d="M130.959 173.34c-9.116.02-17.85-4.274-24.8-9.907"
       fill="red"
       fill-opacity=".009"
       fill-rule="evenodd"
       stroke="#ef4136"
       stroke-width=".265"
       id="path7437" />
    <path
       fill="#cd2c22"
       fill-opacity=".941"
       d="M125.703 209.111h-1.645v24.224h1.645zM151.071 225.548h-1.733v7.822h1.733zM138.2 219.02h-1.693v14.3h1.693zM113.201 195.104h-1.589v38.234h1.589z"
       id="path7439" />
    <g
       stroke="none"
       stroke-opacity="0"
       fill="#ef4136"
       id="g7445">
      <path
         d="M100.509 235.772h8.553v-23.815h-8.553zM101.038 211.957h7.5v-23.815h-7.5z"
         id="path7441" />
      <path
         d="M101.538 188.143h6.5v-23.815h-6.5zM102.009 164.328h5.5v-23.815h-5.5z"
         id="path7443" />
    </g>
    <path
       fill="#ef4136"
       d="M130.489 187.497h1.589v45.814h-1.589zM143.278 203.121h1.624v30.208h-1.624zM155.552 214.281h1.667v19.069h-1.667zM167.961 222.07h1.705v11.232h-1.705zM180.774 225.205h1.735v8.112h-1.735zM193.795 226.282h1.753v7.044h-1.753zM117.963 166.89h1.537v66.448h-1.537z"
       id="path7447" />
    <g
       fill="#ef4136"
       id="g7451">
      <path
         d="M66.705 195.081h-1.589v38.234h1.589zM56.032 204.819h-1.624v28.514h1.624zM43.759 214.286h-1.667v19.069h1.667zM31.35 220.948h-1.705v12.358h1.705zM18.536 225.21h-1.735v8.112h1.735zM5.516 227.272H3.763v6.059h1.753zM81.347 177.963H79.81v55.38h1.537zM94.562 157.527h1.52v75.875h-1.52z"
         id="path7449" />
    </g>
    <path
       fill="#cd2c22"
       fill-opacity=".941"
       d="M163.714 226.599h-1.742v6.762h1.742z"
       id="path7453" />
    <path
       d="M 230.887,202.372 H 229.3 v 30.946 h 1.587 z m -10.673,10.326 h -1.623 v 20.642 h 1.623 z m -12.272,9.057 h -1.668 v 11.589 h 1.668 z m 37.587,-38.102 h -1.536 v 49.649 h 1.536 z m 13.216,-24.165 h 1.52 v 73.831 h -1.52 z m 44.756,35.265 h 1.589 v 38.52889 h -1.589 z m 12.79,12.514 h 1.624 v 26.03289 h -1.624 z m 12.273,8.454 h 1.667 v 17.59989 h -1.667 z m -37.606,-37.318 h 1.571 v 54.85027 h -1.571 z m -13.073,-18.97 h 1.52 v 73.831 h -1.52 z m 63.505,63.822 h 1.717 v 10.135 h -1.717 z m 12.281,3.195 h 1.743 v 6.867 h -1.743 z"
       id="path7455"
       inkscape:connector-curvature="0"
       style="fill:#ef4136"
       sodipodi:nodetypes="cccccccccccccccccccccccccccccccccccccccccccccccccccccccccccc" />
    <path
       d="m 284.063,190.83283 h 1.793 v 42.44732 h -1.793 z m 12.7,11.296 h 1.793 v 31.2033 h -1.793 z m 12.73374,8.74169 h 1.828 l -0.0887,22.48265 h -1.828 z m 13.035,7.61968 h 1.839 l -0.0887,14.88773 h -1.839 z m 11.79026,4.71663 h 1.894 l 0.0887,10.13642 h -1.894 z m 12.749,3.061 h 1.919 v 6.97795 h -1.919 z"
       id="path7457"
       inkscape:connector-curvature="0"
       style="fill:#cd2c22;fill-opacity:0.94100001"
       sodipodi:nodetypes="cccccccccccccccccccccccccccccc" />
    <path
       d="M68.96 123.81a19.243 19.243 0 01-18.847 19.239A19.243 19.243 0 0130.49 124.6a19.243 19.243 0 0118.04-19.998 19.243 19.243 0 0120.366 17.624"
       fill="#fffb38"
       id="path7459" />
  </g>
  <path
     d="M235.107 461.659c.098-.478.71-3.996 1.36-7.818 3.164-18.598 5.031-36.493 5.639-54.041l.187-5.399.962-.08.962-.081.078-2.205c.043-1.213-.022-2.205-.144-2.205-.121 0-.24-.254-.263-.564-.047-.617-.794-1.574-1.229-1.574-.15 0 .01.3.356.668.345.367.505.668.355.668-.15 0-.456-.21-.68-.468-.343-.392-.432-1.945-.556-9.621l-.148-9.154H252.705l-.155 1.002c-.085.551-.239 4.4-.342 8.553l-.187 7.55h-.628c-.61 0-.628-.066-.628-2.272v-2.272h-5.078v21.917l2.205-.049 2.205-.048-2.004-.17-2.005-.172 2.221-.048c1.252-.027 2.156.056 2.073.191-.081.132.034.31.258.395.313.12.35.051.164-.306-.133-.254-.182-.856-.109-1.338.12-.792.167-.831.48-.404.19.26.286.567.215.683-.071.115.02.177.202.136.661-.146.965 1.205 1.14 5.073.632 13.9 3.188 34.912 6.275 51.582l.507 2.74H234.93z"
     fill="none"
     id="path7463" />
  <path
     d="M234.997 462.327c0-.11.353-2.125.784-4.477 3.266-17.815 5.457-37.42 6.213-55.577l.33-7.9h2.027v-2.146c0-2.223-.379-3.585-1.182-4.25-.402-.334-.494-.334-.705 0-.15.236-.245-1.77-.247-5.254-.002-3.1-.083-7.28-.18-9.288l-.174-3.65H252.705l-.155 1.002c-.085.551-.239 4.4-.342 8.553l-.187 7.55h-.628c-.61 0-.628-.066-.628-2.272v-2.272h-5.078v21.881l2.647.085c2.285.073 2.619.03 2.438-.317-.115-.22-.152-.782-.081-1.248l.129-.847.829.944c.822.937.83.977 1.044 4.99.826 15.528 3.228 35.29 6.314 51.954l.507 2.74h-12.259c-6.742 0-12.258-.09-12.258-.201z"
     fill="none"
     id="path7465" />
  <path
     d="M235 462.327c.001-.11.483-2.894 1.07-6.185 3.267-18.341 5.426-38.517 6.044-56.49l.181-5.278h2.056v-2.147c0-2.223-.379-3.585-1.182-4.25-.402-.334-.494-.334-.705 0-.15.236-.245-1.77-.247-5.254-.002-3.1-.083-7.28-.18-9.288l-.174-3.65h10.834l-.157 1.136c-.086.624-.238 4.473-.338 8.552l-.18 7.417h-.628c-.61 0-.629-.065-.629-2.272v-2.272h-5.078v21.917h2.54c1.396 0 2.539-.09 2.539-.2 0-.111-.692-.184-1.537-.163-.845.021-1.116-.011-.602-.072 1.988-.235 2.138-.321 2.138-1.234v-.856l.456.661c.25.363.631.794.846.957.3.228.47 1.637.74 6.147.89 14.915 2.85 31.315 5.602 46.877.506 2.867.987 5.422 1.067 5.68.137.44-.564.467-12.167.467-6.772 0-12.311-.09-12.31-.2z"
     fill="none"
     id="path7467" />
  <path
     d="M235 462.327c.001-.11.483-2.894 1.07-6.185 3.267-18.341 5.426-38.517 6.044-56.49l.181-5.278h2.056v-2.147c0-2.223-.379-3.585-1.182-4.25-.402-.334-.494-.334-.705 0-.15.236-.245-1.77-.247-5.254-.002-3.1-.083-7.28-.18-9.288l-.174-3.65h10.834l-.157 1.136c-.086.624-.238 4.473-.338 8.552l-.18 7.417h-.628c-.61 0-.629-.065-.629-2.272v-2.272h-5.078v21.917h2.54c1.396 0 2.539-.09 2.539-.2 0-.111-.692-.184-1.537-.163-.845.021-1.116-.011-.602-.072 1.988-.235 2.138-.321 2.138-1.234v-.856l.456.661c.25.363.631.794.846.957.3.228.47 1.637.74 6.147.89 14.915 2.85 31.315 5.602 46.877.506 2.867.987 5.422 1.067 5.68.137.44-.564.467-12.167.467-6.772 0-12.311-.09-12.31-.2z"
     fill="none"
     id="path7469" />
  <path
     d="M-45.758 466.95l10.583-6.804zm10.44-7.026l-10.583 6.803z"
     fill-opacity=".823"
     id="path7471" />
  <path
     d="M-77.437 493.02c12.38.088 49.517.355 61.896.445zm61.898.18l-61.896-.445zM-45.58 467.145l8.785-8.004zm8.607-8.2l-8.785 8.005z"
     id="path7473" />
  <g
     transform="matrix(1.26212,0.10757,-0.12731,1.0664,-49.756469,-64.031622)"
     id="cloud2"
     style="fill:#ffffff">
    <ellipse
       cx="301.17499"
       cy="159.495"
       rx="11.602"
       ry="11.901"
       id="ellipse7475" />
    <ellipse
       ry="9.658"
       rx="8.0319996"
       cy="164.08501"
       cx="316.87601"
       id="ellipse7477" />
    <ellipse
       cx="289.259"
       cy="167.75"
       rx="11.897"
       ry="10.03"
       id="ellipse7479" />
    <ellipse
       ry="10.03"
       rx="11.897"
       cy="167.215"
       cx="302.62299"
       id="ellipse7481" />
  </g>
  <g
     transform="translate(-1.07 -92.73)"
     fill="#fff"
     id="cloud1">
    <ellipse
       transform="matrix(.99625 -.08657 -.1163 -.99321 0 0)"
       ry="8.334"
       rx="8.022"
       cy="-183.232"
       cx="190.352"
       id="ellipse7485" />
    <ellipse
       transform="scale(1 -1) rotate(5.76)"
       cx="165.521"
       cy="-183.511"
       rx="11.897"
       ry="10.03"
       id="ellipse7487" />
    <ellipse
       transform="matrix(.99383 -.11091 -.0908 -.99587 0 0)"
       ry="11.086"
       rx="11.911"
       cy="-186.508"
       cx="180.633"
       id="ellipse7489" />
  </g>
</svg>
